<svg width="75" height="75" viewBox="0 0 75 75" fill="none" xmlns="http://www.w3.org/2000/svg">
<rect width="75" height="75" fill="#E5E5E5"/>
<path d="M31.8761 46.824C31.0085 46.0488 30.1897 45.243 29.535 44.4668C26.7042 41.1106 24.2675 36.2729 24.2675 36.2729C22.8043 33.3465 23.214 31.298 24.2675 29.5422C25.1454 28.079 29.8427 24.5499 33.9246 22.2262C35.6804 21.2267 39.6983 21.3483 41.2406 22.8115C47.5194 28.7685 48.1823 33.8714 45.0449 45.6374C45.0449 45.6374 47.0933 46.8079 50.8977 47.1005C54.702 47.3932 54.7019 50.0269 54.7019 50.0269C54.7019 50.0269 54.7019 59.684 54.7019 63.781C54.7019 67.8779 48.2639 67.8779 48.2639 63.781C48.2639 59.684 48.2639 53.246 48.2639 53.246C48.2639 53.246 43.7478 52.8991 40.6553 51.9717M31.8761 46.824L35.0951 40.6625M31.8761 46.824C32.8112 47.6596 33.3127 48.167 34.2172 48.8564M35.0951 40.6625C37.6069 36.4972 38.8774 31.9883 33.9246 29.5422C31.0504 29.8812 29.9454 30.6442 28.9497 33.0539C28.8759 35.2936 29.9993 36.5341 35.0951 40.6625ZM34.2172 48.8564C34.3484 48.9563 34.9681 49.3466 35.0951 49.4417C36.8142 50.7282 38.0424 51.0762 40.07 51.7828C40.258 51.8483 40.4536 51.9112 40.6553 51.9717M34.2172 48.8564L30.9982 60.5619C30.9982 60.5619 23.6823 60.5619 21.9264 60.5619C20.1706 60.5619 19 62.0251 19 63.781C19 65.5368 20.1706 67 22.219 67C24.2675 67 30.1203 67 33.0467 67C35.9731 67 36.2657 65.2442 36.851 63.781C37.4363 62.3178 39.4388 57.138 40.6553 51.9717" stroke="black" stroke-width="2" stroke-linecap="round" stroke-linejoin="round"/>
<path d="M19.2926 40.6625L24.2675 43.0036L21.6337 45.3447L27.1939 46.8079" stroke="black" stroke-width="1.75" stroke-linecap="round" stroke-linejoin="round"/>
<path d="M19 56.465L24.2675 54.4165L21.6338 52.368L27.1939 50.9048" stroke="black" stroke-width="1.75" stroke-linecap="round" stroke-linejoin="round"/>
<path d="M40.07 16.9587C42.8177 16.7994 44.9139 14.4388 44.7522 11.6912C44.5906 8.94368 42.2321 6.84493 39.4847 7.009C36.8215 7.16804 34.8022 9.31591 34.8025 11.9839C34.8028 14.8134 37.2452 17.1225 40.07 16.9587Z" stroke="black" stroke-width="1.75" stroke-linecap="round" stroke-linejoin="round"/>
</svg>
