<svg width="75" height="75" viewBox="0 0 75 75" fill="none" xmlns="http://www.w3.org/2000/svg">
<rect width="75" height="75" fill="#E5E5E5"/>
<path d="M19.2638 46.6187L36.2004 37.1458C36.2004 37.1458 39.0811 36.5334 40.5063 37.4328C41.6635 38.1632 42.176 38.9779 42.5157 40.3034C42.9747 42.0944 41.3675 44.8964 41.3675 44.8964L20.9862 56.3788C20.9862 56.3788 17.554 57.0485 15.5321 56.3788C13.5526 55.7231 12.3593 54.9717 11.2262 53.2211C10.5132 52.1196 10.2965 51.3573 10.0779 50.0635C9.79725 48.4017 10.365 45.7576 10.365 45.7576C10.365 45.7576 10.9391 40.3034 12.6615 37.1458C14.3838 33.9881 16.1062 31.4046 18.6897 31.4046C21.2733 31.4046 37.9227 31.4046 43.951 31.4046C49.9793 31.4046 51.4146 33.9881 53.424 36.2846C55.4334 38.5811 58.5528 43.7481 60.0264 46.9058C61.4999 50.0635 61.1746 53.5082 60.8875 54.9435C60.6005 56.3788 60.0218 57.4852 59.1652 58.9623C57.3359 62.1167 52.5628 65.5647 52.5628 65.5647" stroke="black" stroke-width="2" stroke-linecap="round" stroke-linejoin="round"/>
<path d="M21.2733 65.8518V56.0917" stroke="black" stroke-width="2" stroke-linecap="round"/>
<path d="M47.3957 67V57.8141L51.9887 53.5082V51.7858L46.8216 43.4611" stroke="black" stroke-width="2" stroke-linecap="round" stroke-linejoin="round"/>
<path d="M46.2475 26.5245V22.2186L49.6922 22.7928V17.9128M51.9887 28.821L55.1463 23.941L56.8687 26.8116L60.0264 21.6445M56.8687 33.701L60.8875 29.6822L62.0358 33.1269L66.9158 30.2563" stroke="black" stroke-width="1.75" stroke-linecap="round" stroke-linejoin="round"/>
<path d="M25.2921 16.1904C25.2128 11.1964 29.1988 7.16057 34.191 7.00449C39.3416 6.84345 43.7456 11.0379 43.6639 16.1904C43.5835 21.2655 39.2642 25.2478 34.191 25.0893C29.2787 24.9358 25.3701 21.1045 25.2921 16.1904Z" stroke="black" stroke-width="2" stroke-linecap="round" stroke-linejoin="round"/>
</svg>
